<svg xmlns="http://www.w3.org/2000/svg" viewBox="0 0 40 40">
    <path fill="#B2B2B2" d="M17.218 31.279l-4.456-3.125a1.607 1.607 0 0 0-1.098 0c-1.65.686-.45 4.325-2.486 8.558-.91 1.892-2.104 3.152-1.954 3.275.15.124.96-.668 2.72-2.263 3.714-3.365 6.153-3.508 7.442-5.194.627-.817-.168-1.251-.168-1.251z"/>
    <path fill="#fff" d="M28.76 30.02l-6.91 9.878-2.402-8.871c-.978-.686-2.529-1.172-3.933-2.157-1.404-.985-2.391-2.286-3.37-2.964L3 26.674l6.906-9.88 4.9-1.158c2.022-2.648 4.033-8.548 6.339-10.478C25.485 1.507 35.702 0 35.702 0s2.08 10.13.14 15.461c-1.03 2.831-5.879 6.745-7.673 9.551l.59 5.007zm2.604-17.704a3.509 3.509 0 0 0-1.459-5.22 3.496 3.496 0 0 0-3.83.677 3.507 3.507 0 0 0 3.029 5.986 3.496 3.496 0 0 0 2.26-1.444z"/>
</svg>
